<mxfile host="app.diagrams.net" modified="2023-02-06T22:40:17.218Z" agent="5.0 (Macintosh; Intel Mac OS X 10_15_7) AppleWebKit/605.1.15 (KHTML, like Gecko) Version/16.2 Safari/605.1.15" etag="3ZMqgbbDxWed6VMm0cgN" version="20.8.15" type="github">
  <diagram id="R2lEEEUBdFMjLlhIrx00" name="Page-1">
    <mxGraphModel dx="858" dy="484" grid="1" gridSize="10" guides="1" tooltips="1" connect="1" arrows="1" fold="1" page="1" pageScale="1" pageWidth="850" pageHeight="1100" math="0" shadow="0" extFonts="Permanent Marker^https://fonts.googleapis.com/css?family=Permanent+Marker">
      <root>
        <mxCell id="0" />
        <mxCell id="1" parent="0" />
        <UserObject label="EventBUtils&lt;br&gt;(0.3.0)" lucidchartObjectId="4MpQ590b2zhA" id="gXJeCOJqX6-XGzdC3xa7-2">
          <mxCell style="html=1;overflow=block;blockSpacing=1;whiteSpace=wrap;fontSize=13.3;spacing=3.8;strokeOpacity=100;fillOpacity=100;rounded=1;absoluteArcSize=1;arcSize=7.5;fillColor=#b3d6ef;strokeWidth=1.5;strokeColor=#6c8ebf;" parent="1" vertex="1">
            <mxGeometry x="840" y="14" width="105" height="60" as="geometry" />
          </mxCell>
        </UserObject>
        <UserObject label="EMF_EventB&lt;br&gt;(7.0.0)" placeholders="1" rel_major="6" rel_minor="0" rel_service="0" dev_major="6" dev_minor="1" dev_service="1" lucidchartObjectId="fNpQgL.Gv-xd" id="gXJeCOJqX6-XGzdC3xa7-3">
          <mxCell style="html=1;overflow=block;blockSpacing=1;whiteSpace=wrap;fontSize=13.3;fontColor=default;spacing=3.8;strokeOpacity=100;fillOpacity=100;rounded=1;absoluteArcSize=1;arcSize=7.5;fillColor=#b3d6ef;strokeWidth=1.5;" parent="1" vertex="1">
            <mxGeometry x="844" y="119" width="105" height="60" as="geometry" />
          </mxCell>
        </UserObject>
        <UserObject label="EMF_Translator (4.0.0)" lucidchartObjectId="e5rQBIk2vacU" id="gXJeCOJqX6-XGzdC3xa7-4">
          <mxCell style="html=1;overflow=block;blockSpacing=1;whiteSpace=wrap;fontSize=13.3;fontColor=default;spacing=3.8;strokeOpacity=100;fillOpacity=100;rounded=1;absoluteArcSize=1;arcSize=7.5;fillColor=#b3d6ef;strokeWidth=1.5;" parent="1" vertex="1">
            <mxGeometry x="563" y="135" width="105" height="60" as="geometry" />
          </mxCell>
        </UserObject>
        <UserObject label="EMF_EventB_Extensions (7.0.0)" lucidchartObjectId="o-rQa49epSMn" id="gXJeCOJqX6-XGzdC3xa7-5">
          <mxCell style="html=1;overflow=block;blockSpacing=1;whiteSpace=wrap;fontSize=13.3;fontColor=default;spacing=3.8;strokeOpacity=100;fillOpacity=100;rounded=1;absoluteArcSize=1;arcSize=7.5;fillColor=#b3d6ef;strokeWidth=1.5;" parent="1" vertex="1">
            <mxGeometry x="263" y="270" width="158" height="60" as="geometry" />
          </mxCell>
        </UserObject>
        <UserObject label="EventB_Translator_Support (0.2.0)" lucidchartObjectId="d_rQQnLlnVaU" id="gXJeCOJqX6-XGzdC3xa7-6">
          <mxCell style="html=1;overflow=block;blockSpacing=1;whiteSpace=wrap;fontSize=13.3;fontColor=default;spacing=3.8;strokeOpacity=100;fillOpacity=100;rounded=1;absoluteArcSize=1;arcSize=7.5;fillColor=#b3d6ef;strokeWidth=1.5;" parent="1" vertex="1">
            <mxGeometry x="525" y="270" width="180" height="60" as="geometry" />
          </mxCell>
        </UserObject>
        <UserObject label="RoseEditor &lt;br&gt;(1.8.0)" lucidchartObjectId="U_rQ~Fw4OfqH" id="gXJeCOJqX6-XGzdC3xa7-7">
          <mxCell style="html=1;overflow=block;blockSpacing=1;whiteSpace=wrap;fontSize=13.3;fontColor=default;spacing=3.8;strokeOpacity=100;fillOpacity=100;rounded=1;absoluteArcSize=1;arcSize=7.5;fillColor=#b3d6ef;strokeWidth=1.5;" parent="1" vertex="1">
            <mxGeometry x="795" y="285" width="120" height="60" as="geometry" />
          </mxCell>
        </UserObject>
        <UserObject label="UML_B_Diagrams (9.0.0)" lucidchartObjectId="f.rQJ53QA4yv" id="gXJeCOJqX6-XGzdC3xa7-8">
          <mxCell style="html=1;overflow=block;blockSpacing=1;whiteSpace=wrap;fontSize=13.3;fontColor=default;spacing=3.8;strokeOpacity=100;fillOpacity=100;rounded=1;absoluteArcSize=1;arcSize=7.5;fillColor=#b3d6ef;strokeWidth=1.5;" parent="1" vertex="1">
            <mxGeometry x="285" y="420" width="120" height="60" as="geometry" />
          </mxCell>
        </UserObject>
        <UserObject label="EMF_Inclusion (3.0.0)" lucidchartObjectId="J.rQdSgUioL0" id="gXJeCOJqX6-XGzdC3xa7-9">
          <mxCell style="html=1;overflow=block;blockSpacing=1;whiteSpace=wrap;fontSize=13.3;fontColor=default;spacing=3.8;strokeOpacity=100;fillOpacity=100;rounded=1;absoluteArcSize=1;arcSize=7.5;fillColor=#b3d6ef;strokeWidth=1.5;" parent="1" vertex="1">
            <mxGeometry x="495" y="420" width="105" height="60" as="geometry" />
          </mxCell>
        </UserObject>
        <UserObject label="ProB2 for Rodin 3 (x.x.x)" lucidchartObjectId="masQ5G-jPE8L" id="gXJeCOJqX6-XGzdC3xa7-10">
          <mxCell style="html=1;overflow=block;blockSpacing=1;whiteSpace=wrap;fontSize=13.3;fontColor=default;spacing=3.8;strokeOpacity=100;fillOpacity=100;rounded=1;absoluteArcSize=1;arcSize=7.5;fillColor=#e5e5e5;dashed=1;fixDash=1;strokeWidth=1.5;" parent="1" vertex="1">
            <mxGeometry x="15" y="645" width="120" height="60" as="geometry" />
          </mxCell>
        </UserObject>
        <UserObject label="UML_B_ClassDiagrams (3.0.0 --&amp;gt; 4.0.0)" lucidchartObjectId="3asQsMQI48Ty" id="gXJeCOJqX6-XGzdC3xa7-11">
          <mxCell style="html=1;overflow=block;blockSpacing=1;whiteSpace=wrap;fontSize=13.3;fontColor=default;spacing=3.8;strokeOpacity=100;fillOpacity=100;rounded=1;absoluteArcSize=1;arcSize=7.5;fillColor=#83bbe5;strokeWidth=1.5;" parent="1" vertex="1">
            <mxGeometry x="15" y="555" width="165" height="60" as="geometry" />
          </mxCell>
        </UserObject>
        <UserObject label="UML_B_StateMachineDiagrams (4.0.1 --&amp;gt; 5.0.0)" lucidchartObjectId="fcsQ3d~rYoar" id="gXJeCOJqX6-XGzdC3xa7-12">
          <mxCell style="html=1;overflow=block;blockSpacing=1;whiteSpace=wrap;fontSize=13.3;fontColor=default;spacing=3.8;strokeOpacity=100;fillOpacity=100;rounded=1;absoluteArcSize=1;arcSize=7.5;fillColor=#83bbe5;strokeWidth=1.5;" parent="1" vertex="1">
            <mxGeometry x="227" y="555" width="210" height="60" as="geometry" />
          </mxCell>
        </UserObject>
        <UserObject label="ProB for Rodin 3 (3.0.10)" lucidchartObjectId="UcsQy_wzR4fR" id="gXJeCOJqX6-XGzdC3xa7-13">
          <mxCell style="html=1;overflow=block;blockSpacing=1;whiteSpace=wrap;fontSize=13.3;fontColor=default;spacing=3.8;strokeOpacity=100;fillOpacity=100;rounded=1;absoluteArcSize=1;arcSize=7.5;fillColor=#e5e5e5;dashed=1;fixDash=1;strokeWidth=1.5;" parent="1" vertex="1">
            <mxGeometry x="1054" y="14" width="120" height="60" as="geometry" />
          </mxCell>
        </UserObject>
        <UserObject label="EMF_Containment (1.0.0)" lucidchartObjectId="cdsQCC2P5QCC" id="gXJeCOJqX6-XGzdC3xa7-14">
          <mxCell style="html=1;overflow=block;blockSpacing=1;whiteSpace=wrap;fontSize=13.3;fontColor=default;spacing=3.8;strokeOpacity=100;fillOpacity=100;rounded=1;absoluteArcSize=1;arcSize=7.5;fillColor=#b3d6ef;strokeWidth=1.5;" parent="1" vertex="1">
            <mxGeometry x="780" y="585" width="120" height="60" as="geometry" />
          </mxCell>
        </UserObject>
        <UserObject label="XEventB (3.0.0)" lucidchartObjectId="wdsQ4mmQQCU4" id="gXJeCOJqX6-XGzdC3xa7-15">
          <mxCell style="html=1;overflow=block;blockSpacing=1;whiteSpace=wrap;fontSize=13.3;fontColor=default;spacing=3.8;strokeOpacity=100;fillOpacity=100;rounded=1;absoluteArcSize=1;arcSize=7.5;fillColor=#b3d6ef;strokeWidth=1.5;" parent="1" vertex="1">
            <mxGeometry x="1013" y="585" width="75" height="60" as="geometry" />
          </mxCell>
        </UserObject>
        <UserObject label="EMF_EventB_Decomposition (0.1.0)" lucidchartObjectId="QdsQj~QU8bMw" id="gXJeCOJqX6-XGzdC3xa7-16">
          <mxCell style="html=1;overflow=block;blockSpacing=1;whiteSpace=wrap;fontSize=13.3;fontColor=default;spacing=3.8;strokeOpacity=100;fillOpacity=100;rounded=1;absoluteArcSize=1;arcSize=7.5;fillColor=#b2d6ef;strokeWidth=1.5;" parent="1" vertex="1">
            <mxGeometry x="572" y="570" width="180" height="60" as="geometry" />
          </mxCell>
        </UserObject>
        <UserObject label="State-machine Animation 2 (x.x.x)" lucidchartObjectId="mesQ3vbCxGGZ" id="gXJeCOJqX6-XGzdC3xa7-17">
          <mxCell style="html=1;overflow=block;blockSpacing=1;whiteSpace=wrap;fontSize=13.3;fontColor=default;spacing=3.8;strokeOpacity=100;fillOpacity=100;rounded=1;absoluteArcSize=1;arcSize=7.5;fillColor=#ffbbb1;dashed=1;fixDash=1;dashPattern=1 2;strokeWidth=1.5;" parent="1" vertex="1">
            <mxGeometry x="15" y="750" width="180" height="60" as="geometry" />
          </mxCell>
        </UserObject>
        <UserObject label="UML_B_StateMachineAnimation1 (3.0.0)" lucidchartObjectId="VesQQeH9.m6W" id="gXJeCOJqX6-XGzdC3xa7-18">
          <mxCell style="html=1;overflow=block;blockSpacing=1;whiteSpace=wrap;fontSize=13.3;fontColor=default;spacing=3.8;strokeOpacity=100;fillOpacity=100;rounded=1;absoluteArcSize=1;arcSize=7.5;fillColor=#83bbe5;strokeWidth=1.5;" parent="1" vertex="1">
            <mxGeometry x="210" y="675" width="227" height="60" as="geometry" />
          </mxCell>
        </UserObject>
        <UserObject label="CODA_ComponentDiagrams (6.0.1)" lucidchartObjectId="ifsQV37_i.Z." id="gXJeCOJqX6-XGzdC3xa7-19">
          <mxCell style="html=1;overflow=block;blockSpacing=1;whiteSpace=wrap;fontSize=13.3;fontColor=default;spacing=3.8;strokeOpacity=100;fillOpacity=100;rounded=1;absoluteArcSize=1;arcSize=7.5;fillColor=#b2d6ef;strokeWidth=1.5;" parent="1" vertex="1">
            <mxGeometry x="572" y="675" width="180" height="60" as="geometry" />
          </mxCell>
        </UserObject>
        <UserObject label="EventB_Documentor (xxx)" lucidchartObjectId="LfsQATFugiBD" id="gXJeCOJqX6-XGzdC3xa7-20">
          <mxCell style="html=1;overflow=block;blockSpacing=1;whiteSpace=wrap;fontSize=13.3;fontColor=default;spacing=3.8;strokeOpacity=100;fillOpacity=100;rounded=1;absoluteArcSize=1;arcSize=7.5;fillColor=#ffbbb1;dashed=1;fixDash=1;dashPattern=1 2;strokeWidth=1.5;" parent="1" vertex="1">
            <mxGeometry x="1013" y="795" width="135" height="60" as="geometry" />
          </mxCell>
        </UserObject>
        <UserObject label="&lt;div style=&quot;display: flex; justify-content: center; text-align: center; align-items: baseline; font-size: 0; line-height: 1.25;margin-top: -2px;&quot;&gt;&lt;span&gt;&lt;span style=&quot;font-size:13.3px;color:#000000;&quot;&gt;Qualitative Probablity (xxx)&lt;/span&gt;&lt;span style=&quot;font-size:16px;color:#000000;&quot;&gt; &lt;/span&gt;&lt;/span&gt;&lt;/div&gt;" lucidchartObjectId="_fsQZzR7VCjq" id="gXJeCOJqX6-XGzdC3xa7-21">
          <mxCell style="html=1;overflow=block;blockSpacing=1;whiteSpace=wrap;fontSize=13;spacing=3.8;strokeOpacity=100;fillOpacity=100;rounded=1;absoluteArcSize=1;arcSize=7.5;fillColor=#ffbbb1;dashed=1;fixDash=1;dashPattern=1 2;strokeWidth=1.5;" parent="1" vertex="1">
            <mxGeometry x="1155" y="885" width="135" height="60" as="geometry" />
          </mxCell>
        </UserObject>
        <UserObject label="XUML_B (xxx)" lucidchartObjectId="xgsQij3kb1fK" id="gXJeCOJqX6-XGzdC3xa7-22">
          <mxCell style="html=1;overflow=block;blockSpacing=1;whiteSpace=wrap;fontSize=13.3;fontColor=default;spacing=3.8;strokeOpacity=100;fillOpacity=100;rounded=1;absoluteArcSize=1;arcSize=7.5;fillColor=#ffbbb1;dashed=1;fixDash=1;dashPattern=1 2;strokeWidth=1.5;" parent="1" vertex="1">
            <mxGeometry x="923" y="795" width="68" height="60" as="geometry" />
          </mxCell>
        </UserObject>
        <UserObject label="&lt;div&gt;Records &lt;br&gt;&lt;/div&gt;&lt;div&gt;(1.0.0)&lt;/div&gt;" lucidchartObjectId="SgsQyWVwpBqz" id="gXJeCOJqX6-XGzdC3xa7-23">
          <mxCell style="html=1;overflow=block;blockSpacing=1;whiteSpace=wrap;fontSize=13.3;fontColor=default;spacing=3.8;strokeOpacity=100;fillOpacity=100;rounded=1;absoluteArcSize=1;arcSize=7.5;fillColor=#b3d6ef;strokeWidth=1.5;" parent="1" vertex="1">
            <mxGeometry x="690" y="420" width="100" height="60" as="geometry" />
          </mxCell>
        </UserObject>
        <UserObject label="Proof Support (xxx)" lucidchartObjectId="_gsQzO7m4ces" id="gXJeCOJqX6-XGzdC3xa7-24">
          <mxCell style="html=1;overflow=block;blockSpacing=1;whiteSpace=wrap;fontSize=13.3;fontColor=default;spacing=3.8;strokeOpacity=100;fillOpacity=100;rounded=1;absoluteArcSize=1;arcSize=7.5;fillColor=#ffbbb1;dashed=1;fixDash=1;dashPattern=1 2;strokeWidth=1.5;" parent="1" vertex="1">
            <mxGeometry x="1275" y="795" width="90" height="60" as="geometry" />
          </mxCell>
        </UserObject>
        <UserObject label="ScenarioChecker (1.0.0)" lucidchartObjectId="phsQJYlsA9p~" id="gXJeCOJqX6-XGzdC3xa7-25">
          <mxCell style="html=1;overflow=block;blockSpacing=1;whiteSpace=wrap;fontSize=13.3;fontColor=default;spacing=3.8;strokeOpacity=100;fillOpacity=100;rounded=1;absoluteArcSize=1;arcSize=7.5;fillColor=#83bbe5;strokeWidth=1.5;" parent="1" vertex="1">
            <mxGeometry x="1054" y="482" width="135" height="60" as="geometry" />
          </mxCell>
        </UserObject>
        <UserObject label="CODA_UI (0.1.1)" lucidchartObjectId="qisQaKyhdeY~" id="gXJeCOJqX6-XGzdC3xa7-26">
          <mxCell style="html=1;overflow=block;blockSpacing=1;whiteSpace=wrap;fontSize=13.3;fontColor=default;spacing=3.8;strokeOpacity=100;fillOpacity=100;rounded=1;absoluteArcSize=1;arcSize=7.5;fillColor=#b2d6ef;strokeWidth=1.5;" parent="1" vertex="1">
            <mxGeometry x="459" y="780" width="71" height="60" as="geometry" />
          </mxCell>
        </UserObject>
        <UserObject label="CODA_Utils (---)" lucidchartObjectId="XisQi7fVFDvH" id="gXJeCOJqX6-XGzdC3xa7-27">
          <mxCell style="html=1;overflow=block;blockSpacing=1;whiteSpace=wrap;fontSize=13.3;fontColor=default;spacing=3.8;strokeOpacity=100;fillOpacity=100;rounded=1;absoluteArcSize=1;arcSize=7.5;fillColor=#b2d6ef;strokeWidth=1.5;" parent="1" vertex="1">
            <mxGeometry x="572" y="780" width="71" height="60" as="geometry" />
          </mxCell>
        </UserObject>
        <UserObject label="Oracle (1.2.1)" lucidchartObjectId="fjsQ302CP4x~" id="gXJeCOJqX6-XGzdC3xa7-28">
          <mxCell style="html=1;overflow=block;blockSpacing=1;whiteSpace=wrap;fontSize=13.3;fontColor=default;spacing=3.8;strokeOpacity=100;fillOpacity=100;rounded=1;absoluteArcSize=1;arcSize=7.5;fillColor=#b2d6ef;strokeWidth=1.5;" parent="1" vertex="1">
            <mxGeometry x="870" y="390" width="71" height="60" as="geometry" />
          </mxCell>
        </UserObject>
        <UserObject label="CODA_VHDL (0.0.5)" lucidchartObjectId="yjsQzAlVn8X0" id="gXJeCOJqX6-XGzdC3xa7-29">
          <mxCell style="html=1;overflow=block;blockSpacing=1;whiteSpace=wrap;fontSize=13.3;fontColor=default;spacing=3.8;strokeOpacity=100;fillOpacity=100;rounded=1;absoluteArcSize=1;arcSize=7.5;fillColor=#b2d6ef;strokeWidth=1.5;" parent="1" vertex="1">
            <mxGeometry x="437" y="900" width="116" height="60" as="geometry" />
          </mxCell>
        </UserObject>
        <UserObject label="Simulator 2 (x.x.x)" lucidchartObjectId="SjsQP29-RM7N" id="gXJeCOJqX6-XGzdC3xa7-30">
          <mxCell style="html=1;overflow=block;blockSpacing=1;whiteSpace=wrap;fontSize=13.3;fontColor=default;spacing=3.8;strokeOpacity=100;fillOpacity=100;rounded=1;absoluteArcSize=1;arcSize=7.5;fillColor=#ffbbb1;dashed=1;fixDash=1;dashPattern=1 2;strokeWidth=1.5;" parent="1" vertex="1">
            <mxGeometry x="60" y="900" width="90" height="60" as="geometry" />
          </mxCell>
        </UserObject>
        <UserObject label="CODA_Simulator (3.0.1)" lucidchartObjectId="_jsQDJASNJ42" id="gXJeCOJqX6-XGzdC3xa7-31">
          <mxCell style="html=1;overflow=block;blockSpacing=1;whiteSpace=wrap;fontSize=13.3;fontColor=default;spacing=3.8;strokeOpacity=100;fillOpacity=100;rounded=1;absoluteArcSize=1;arcSize=7.5;fillColor=#b2d6ef;strokeWidth=1.5;" parent="1" vertex="1">
            <mxGeometry x="675" y="900" width="120" height="60" as="geometry" />
          </mxCell>
        </UserObject>
        <UserObject label="Atelier-B Prover (2.2.1)" lucidchartObjectId="AksQ1dqARNAP" id="gXJeCOJqX6-XGzdC3xa7-32">
          <mxCell style="html=1;overflow=block;blockSpacing=1;whiteSpace=wrap;fontSize=13.3;fontColor=default;spacing=3.8;strokeOpacity=100;fillOpacity=100;rounded=1;absoluteArcSize=1;arcSize=7.5;fillColor=#e5e5e5;dashed=1;fixDash=1;strokeWidth=1.5;" parent="1" vertex="1">
            <mxGeometry x="1260" y="14" width="105" height="60" as="geometry" />
          </mxCell>
        </UserObject>
        <UserObject label="" lucidchartObjectId="8osQkjWoYF6-" id="gXJeCOJqX6-XGzdC3xa7-33">
          <mxCell style="html=1;jettySize=18;whiteSpace=wrap;fontSize=13;strokeColor=#c92d39;strokeOpacity=100;strokeWidth=1.5;rounded=1;arcSize=0;edgeStyle=orthogonalEdgeStyle;startArrow=none;endArrow=block;endFill=1;exitX=0.5;exitY=-0.012;exitPerimeter=0;entryX=0.536;entryY=1.012;entryPerimeter=0;" parent="1" source="gXJeCOJqX6-XGzdC3xa7-3" target="gXJeCOJqX6-XGzdC3xa7-2" edge="1">
            <mxGeometry width="100" height="100" relative="1" as="geometry">
              <Array as="points" />
            </mxGeometry>
          </mxCell>
        </UserObject>
        <UserObject label="" lucidchartObjectId="gssQpe9Ai5tq" id="gXJeCOJqX6-XGzdC3xa7-34">
          <mxCell style="html=1;jettySize=18;whiteSpace=wrap;fontSize=13;strokeColor=#c92d39;strokeOpacity=100;strokeWidth=1.5;rounded=0;startArrow=none;endArrow=block;endFill=1;exitX=0.5;exitY=-0.012;exitPerimeter=0;entryX=0.5;entryY=1.012;entryPerimeter=0;" parent="1" source="gXJeCOJqX6-XGzdC3xa7-5" target="gXJeCOJqX6-XGzdC3xa7-3" edge="1">
            <mxGeometry width="100" height="100" relative="1" as="geometry">
              <Array as="points" />
            </mxGeometry>
          </mxCell>
        </UserObject>
        <UserObject label="" lucidchartObjectId="CssQbYhx4U7b" id="gXJeCOJqX6-XGzdC3xa7-35">
          <mxCell style="html=1;jettySize=18;whiteSpace=wrap;fontSize=13;strokeColor=#c92d39;strokeOpacity=100;strokeWidth=1.5;rounded=0;startArrow=none;endArrow=block;endFill=1;exitX=0.5;exitY=-0.012;exitPerimeter=0;entryX=0.5;entryY=1.012;entryPerimeter=0;" parent="1" source="gXJeCOJqX6-XGzdC3xa7-6" target="gXJeCOJqX6-XGzdC3xa7-4" edge="1">
            <mxGeometry width="100" height="100" relative="1" as="geometry">
              <Array as="points" />
            </mxGeometry>
          </mxCell>
        </UserObject>
        <UserObject label="" lucidchartObjectId="UssQa.PPUqFA" id="gXJeCOJqX6-XGzdC3xa7-36">
          <mxCell style="html=1;jettySize=18;whiteSpace=wrap;fontSize=13;strokeColor=#c92d39;strokeOpacity=100;strokeWidth=1.5;rounded=0;startArrow=none;endArrow=block;endFill=1;exitX=0.5;exitY=-0.012;exitPerimeter=0;entryX=0.5;entryY=1.012;entryPerimeter=0;" parent="1" source="gXJeCOJqX6-XGzdC3xa7-6" target="gXJeCOJqX6-XGzdC3xa7-3" edge="1">
            <mxGeometry width="100" height="100" relative="1" as="geometry">
              <Array as="points" />
            </mxGeometry>
          </mxCell>
        </UserObject>
        <UserObject label="" lucidchartObjectId="utsQxC5EtuvJ" id="gXJeCOJqX6-XGzdC3xa7-37">
          <mxCell style="html=1;jettySize=18;whiteSpace=wrap;fontSize=13;strokeColor=#c92d39;strokeOpacity=100;strokeWidth=1.5;rounded=0;startArrow=none;endArrow=block;endFill=1;exitX=0.5;exitY=-0.012;exitPerimeter=0;entryX=0.5;entryY=1.012;entryPerimeter=0;" parent="1" source="gXJeCOJqX6-XGzdC3xa7-7" target="gXJeCOJqX6-XGzdC3xa7-3" edge="1">
            <mxGeometry width="100" height="100" relative="1" as="geometry">
              <Array as="points" />
            </mxGeometry>
          </mxCell>
        </UserObject>
        <UserObject label="" lucidchartObjectId="EtsQ-UGbX19c" id="gXJeCOJqX6-XGzdC3xa7-38">
          <mxCell style="html=1;jettySize=18;whiteSpace=wrap;fontSize=13;strokeColor=#c92d39;strokeOpacity=100;strokeWidth=1.5;rounded=0;startArrow=none;endArrow=block;endFill=1;exitX=0.469;exitY=-0.012;exitPerimeter=0;entryX=0.5;entryY=1.012;entryPerimeter=0;" parent="1" source="gXJeCOJqX6-XGzdC3xa7-8" target="gXJeCOJqX6-XGzdC3xa7-5" edge="1">
            <mxGeometry width="100" height="100" relative="1" as="geometry">
              <Array as="points" />
            </mxGeometry>
          </mxCell>
        </UserObject>
        <UserObject label="" lucidchartObjectId="JtsQeBcR8Oxg" id="gXJeCOJqX6-XGzdC3xa7-39">
          <mxCell style="html=1;jettySize=18;whiteSpace=wrap;fontSize=13;strokeColor=#c92d39;strokeOpacity=100;strokeWidth=1.5;rounded=0;startArrow=none;endArrow=block;endFill=1;exitX=0.5;exitY=-0.012;exitPerimeter=0;entryX=0.5;entryY=1.012;entryPerimeter=0;" parent="1" source="gXJeCOJqX6-XGzdC3xa7-9" target="gXJeCOJqX6-XGzdC3xa7-5" edge="1">
            <mxGeometry width="100" height="100" relative="1" as="geometry">
              <Array as="points" />
            </mxGeometry>
          </mxCell>
        </UserObject>
        <UserObject label="" lucidchartObjectId="RtsQw8hHAOmd" id="gXJeCOJqX6-XGzdC3xa7-40">
          <mxCell style="html=1;jettySize=18;whiteSpace=wrap;fontSize=13;strokeColor=#c92d39;strokeOpacity=100;strokeWidth=1.5;rounded=0;startArrow=none;endArrow=block;endFill=1;exitX=0.5;exitY=-0.012;exitPerimeter=0;entryX=0.5;entryY=1.012;entryPerimeter=0;" parent="1" source="gXJeCOJqX6-XGzdC3xa7-8" target="gXJeCOJqX6-XGzdC3xa7-6" edge="1">
            <mxGeometry width="100" height="100" relative="1" as="geometry">
              <Array as="points" />
            </mxGeometry>
          </mxCell>
        </UserObject>
        <UserObject label="" lucidchartObjectId="lusQx4ggyh_B" id="gXJeCOJqX6-XGzdC3xa7-41">
          <mxCell style="html=1;jettySize=18;whiteSpace=wrap;fontSize=13;strokeColor=#c92d39;strokeOpacity=100;dashed=1;fixDash=1;dashPattern=10 5 1 5 1 5;strokeWidth=1.5;rounded=0;startArrow=none;endArrow=block;endFill=1;exitX=0.5;exitY=-0.012;exitPerimeter=0;entryX=0.5;entryY=1.012;entryPerimeter=0;" parent="1" source="gXJeCOJqX6-XGzdC3xa7-11" target="gXJeCOJqX6-XGzdC3xa7-8" edge="1">
            <mxGeometry width="100" height="100" relative="1" as="geometry">
              <Array as="points" />
            </mxGeometry>
          </mxCell>
        </UserObject>
        <UserObject label="" lucidchartObjectId="HusQv_M--n78" id="gXJeCOJqX6-XGzdC3xa7-42">
          <mxCell style="html=1;jettySize=18;whiteSpace=wrap;fontSize=13;strokeColor=#c92d39;strokeOpacity=100;strokeWidth=1.5;rounded=0;startArrow=none;endArrow=block;endFill=1;exitX=0.5;exitY=-0.012;exitPerimeter=0;entryX=0.5;entryY=1.012;entryPerimeter=0;" parent="1" source="gXJeCOJqX6-XGzdC3xa7-12" target="gXJeCOJqX6-XGzdC3xa7-8" edge="1">
            <mxGeometry width="100" height="100" relative="1" as="geometry">
              <Array as="points" />
            </mxGeometry>
          </mxCell>
        </UserObject>
        <UserObject label="" lucidchartObjectId="XusQF.gNLTej" id="gXJeCOJqX6-XGzdC3xa7-43">
          <mxCell style="html=1;jettySize=18;whiteSpace=wrap;fontSize=13;strokeColor=#c92d39;strokeOpacity=100;strokeWidth=1.5;rounded=0;startArrow=none;endArrow=block;endFill=1;exitX=0.5;exitY=-0.012;exitPerimeter=0;entryX=0.5;entryY=1.012;entryPerimeter=0;" parent="1" source="gXJeCOJqX6-XGzdC3xa7-14" target="gXJeCOJqX6-XGzdC3xa7-8" edge="1">
            <mxGeometry width="100" height="100" relative="1" as="geometry">
              <Array as="points" />
            </mxGeometry>
          </mxCell>
        </UserObject>
        <UserObject label="" lucidchartObjectId="xvsQc_AZHJD~" id="gXJeCOJqX6-XGzdC3xa7-44">
          <mxCell style="html=1;jettySize=18;whiteSpace=wrap;fontSize=13;strokeColor=#c92d39;strokeOpacity=100;strokeWidth=1.5;rounded=0;startArrow=none;endArrow=block;endFill=1;exitX=0.5;exitY=-0.012;exitPerimeter=0;entryX=0.5;entryY=1.012;entryPerimeter=0;" parent="1" source="gXJeCOJqX6-XGzdC3xa7-15" target="gXJeCOJqX6-XGzdC3xa7-9" edge="1">
            <mxGeometry width="100" height="100" relative="1" as="geometry">
              <Array as="points" />
            </mxGeometry>
          </mxCell>
        </UserObject>
        <UserObject label="" lucidchartObjectId="IvsQqHtf5PuY" id="gXJeCOJqX6-XGzdC3xa7-45">
          <mxCell style="html=1;jettySize=18;whiteSpace=wrap;fontSize=13;strokeColor=#c92d39;strokeOpacity=100;strokeWidth=1.5;rounded=0;startArrow=none;endArrow=block;endFill=1;exitX=-0.01;exitY=0.5;exitPerimeter=0;entryX=1.006;entryY=0.5;entryPerimeter=0;" parent="1" source="gXJeCOJqX6-XGzdC3xa7-15" target="gXJeCOJqX6-XGzdC3xa7-14" edge="1">
            <mxGeometry width="100" height="100" relative="1" as="geometry">
              <Array as="points" />
            </mxGeometry>
          </mxCell>
        </UserObject>
        <UserObject label="" lucidchartObjectId="TvsQy5tF4L46" id="gXJeCOJqX6-XGzdC3xa7-46">
          <mxCell style="html=1;jettySize=18;whiteSpace=wrap;fontSize=13;strokeColor=#c92d39;strokeOpacity=100;strokeWidth=1.5;rounded=0;startArrow=none;endArrow=block;endFill=1;exitX=0.5;exitY=-0.012;exitPerimeter=0;entryX=0.5;entryY=1.012;entryPerimeter=0;" parent="1" source="gXJeCOJqX6-XGzdC3xa7-16" target="gXJeCOJqX6-XGzdC3xa7-6" edge="1">
            <mxGeometry width="100" height="100" relative="1" as="geometry">
              <Array as="points" />
            </mxGeometry>
          </mxCell>
        </UserObject>
        <UserObject label="" lucidchartObjectId="UwsQmLFcm9mc" id="gXJeCOJqX6-XGzdC3xa7-47">
          <mxCell style="html=1;jettySize=18;whiteSpace=wrap;fontSize=13;strokeColor=#c92d39;strokeOpacity=100;strokeWidth=1.5;rounded=0;startArrow=none;endArrow=block;endFill=1;exitX=0.5;exitY=-0.012;exitPerimeter=0;entryX=0.5;entryY=1.012;entryPerimeter=0;" parent="1" source="gXJeCOJqX6-XGzdC3xa7-18" target="gXJeCOJqX6-XGzdC3xa7-12" edge="1">
            <mxGeometry width="100" height="100" relative="1" as="geometry">
              <Array as="points" />
            </mxGeometry>
          </mxCell>
        </UserObject>
        <UserObject label="" lucidchartObjectId="7wsQtVUH3T5s" id="gXJeCOJqX6-XGzdC3xa7-48">
          <mxCell style="html=1;jettySize=18;whiteSpace=wrap;fontSize=13;strokeColor=#c92d39;strokeOpacity=100;strokeWidth=1.5;rounded=0;startArrow=none;endArrow=block;endFill=1;exitX=0.5;exitY=-0.012;exitPerimeter=0;entryX=0.5;entryY=1.012;entryPerimeter=0;" parent="1" source="gXJeCOJqX6-XGzdC3xa7-18" target="gXJeCOJqX6-XGzdC3xa7-68" edge="1">
            <mxGeometry width="100" height="100" relative="1" as="geometry">
              <Array as="points" />
            </mxGeometry>
          </mxCell>
        </UserObject>
        <UserObject label="" lucidchartObjectId="bxsQcvocBOmF" id="gXJeCOJqX6-XGzdC3xa7-49">
          <mxCell style="html=1;jettySize=18;whiteSpace=wrap;fontSize=13;strokeColor=#c92d39;strokeOpacity=100;strokeWidth=1.5;rounded=0;startArrow=none;endArrow=block;endFill=1;exitX=0.5;exitY=-0.012;exitPerimeter=0;entryX=0.5;entryY=1.012;entryPerimeter=0;" parent="1" source="gXJeCOJqX6-XGzdC3xa7-19" target="gXJeCOJqX6-XGzdC3xa7-16" edge="1">
            <mxGeometry width="100" height="100" relative="1" as="geometry">
              <Array as="points" />
            </mxGeometry>
          </mxCell>
        </UserObject>
        <UserObject label="" lucidchartObjectId="NxsQP5vslJwe" id="gXJeCOJqX6-XGzdC3xa7-50">
          <mxCell style="html=1;jettySize=18;whiteSpace=wrap;fontSize=13;strokeColor=#c92d39;strokeOpacity=100;strokeWidth=1.5;rounded=0;startArrow=none;endArrow=block;endFill=1;exitX=0.5;exitY=-0.012;exitPerimeter=0;entryX=0.5;entryY=1.012;entryPerimeter=0;" parent="1" source="gXJeCOJqX6-XGzdC3xa7-26" target="gXJeCOJqX6-XGzdC3xa7-19" edge="1">
            <mxGeometry width="100" height="100" relative="1" as="geometry">
              <Array as="points" />
            </mxGeometry>
          </mxCell>
        </UserObject>
        <UserObject label="" lucidchartObjectId="WxsQCTRgOfjM" id="gXJeCOJqX6-XGzdC3xa7-51">
          <mxCell style="html=1;jettySize=18;whiteSpace=wrap;fontSize=13;strokeColor=#c92d39;strokeOpacity=100;strokeWidth=1.5;rounded=0;startArrow=none;endArrow=block;endFill=1;exitX=0.5;exitY=-0.012;exitPerimeter=0;entryX=0.5;entryY=1.012;entryPerimeter=0;" parent="1" source="gXJeCOJqX6-XGzdC3xa7-27" target="gXJeCOJqX6-XGzdC3xa7-19" edge="1">
            <mxGeometry width="100" height="100" relative="1" as="geometry">
              <Array as="points" />
            </mxGeometry>
          </mxCell>
        </UserObject>
        <UserObject label="" lucidchartObjectId="hysQbwYuZVEm" id="gXJeCOJqX6-XGzdC3xa7-52">
          <mxCell style="html=1;jettySize=18;whiteSpace=wrap;fontSize=13;strokeColor=#c92d39;strokeOpacity=100;strokeWidth=1.5;rounded=0;startArrow=none;endArrow=block;endFill=1;exitX=0.5;exitY=-0.012;exitPerimeter=0;entryX=0.5;entryY=1.012;entryPerimeter=0;" parent="1" source="gXJeCOJqX6-XGzdC3xa7-29" target="gXJeCOJqX6-XGzdC3xa7-26" edge="1">
            <mxGeometry width="100" height="100" relative="1" as="geometry">
              <Array as="points" />
            </mxGeometry>
          </mxCell>
        </UserObject>
        <UserObject label="" lucidchartObjectId="pysQFg1MHtk_" id="gXJeCOJqX6-XGzdC3xa7-53">
          <mxCell style="html=1;jettySize=18;whiteSpace=wrap;fontSize=13;strokeColor=#c92d39;strokeOpacity=100;strokeWidth=1.5;rounded=0;startArrow=none;endArrow=block;endFill=1;exitX=0.5;exitY=-0.012;exitPerimeter=0;entryX=0.5;entryY=1.012;entryPerimeter=0;" parent="1" source="gXJeCOJqX6-XGzdC3xa7-31" target="gXJeCOJqX6-XGzdC3xa7-26" edge="1">
            <mxGeometry width="100" height="100" relative="1" as="geometry">
              <Array as="points" />
            </mxGeometry>
          </mxCell>
        </UserObject>
        <UserObject label="" lucidchartObjectId="wysQQ9JeD3tE" id="gXJeCOJqX6-XGzdC3xa7-54">
          <mxCell style="html=1;jettySize=18;whiteSpace=wrap;fontSize=13;strokeColor=#c92d39;strokeOpacity=100;strokeWidth=1.5;rounded=0;startArrow=none;endArrow=block;endFill=1;exitX=0.5;exitY=-0.012;exitPerimeter=0;entryX=0.5;entryY=1.012;entryPerimeter=0;" parent="1" source="gXJeCOJqX6-XGzdC3xa7-31" target="gXJeCOJqX6-XGzdC3xa7-27" edge="1">
            <mxGeometry width="100" height="100" relative="1" as="geometry">
              <Array as="points" />
            </mxGeometry>
          </mxCell>
        </UserObject>
        <UserObject label="" lucidchartObjectId="FysQJZtm_.SH" id="gXJeCOJqX6-XGzdC3xa7-55">
          <mxCell style="html=1;jettySize=18;whiteSpace=wrap;fontSize=13;strokeColor=#c92d39;strokeOpacity=100;strokeWidth=1.5;rounded=0;startArrow=none;endArrow=block;endFill=1;exitX=0.5;exitY=-0.012;exitPerimeter=0;entryX=0.5;entryY=1.012;entryPerimeter=0;" parent="1" source="gXJeCOJqX6-XGzdC3xa7-31" target="gXJeCOJqX6-XGzdC3xa7-28" edge="1">
            <mxGeometry width="100" height="100" relative="1" as="geometry">
              <Array as="points" />
            </mxGeometry>
          </mxCell>
        </UserObject>
        <UserObject label="" lucidchartObjectId="ezsQ81U3M64M" id="gXJeCOJqX6-XGzdC3xa7-56">
          <mxCell style="html=1;jettySize=18;whiteSpace=wrap;fontSize=13;strokeColor=#c92d39;strokeOpacity=100;dashed=1;fixDash=1;dashPattern=8 8;strokeWidth=1.5;rounded=0;startArrow=none;endArrow=block;endFill=1;exitX=1.004;exitY=0.5;exitPerimeter=0;entryX=-0.003;entryY=0.5;entryPerimeter=0;" parent="1" source="gXJeCOJqX6-XGzdC3xa7-11" target="gXJeCOJqX6-XGzdC3xa7-12" edge="1">
            <mxGeometry width="100" height="100" relative="1" as="geometry">
              <Array as="points" />
            </mxGeometry>
          </mxCell>
        </UserObject>
        <UserObject label="" lucidchartObjectId="YzsQYtsKsb2-" id="gXJeCOJqX6-XGzdC3xa7-57">
          <mxCell style="html=1;jettySize=18;whiteSpace=wrap;fontSize=13;strokeColor=#c92d39;strokeOpacity=100;dashed=1;fixDash=1;dashPattern=8 8;strokeWidth=1.5;rounded=0;startArrow=none;endArrow=block;endFill=1;exitX=0.5;exitY=-0.012;exitPerimeter=0;entryX=0.5;entryY=1.012;entryPerimeter=0;" parent="1" source="gXJeCOJqX6-XGzdC3xa7-17" target="gXJeCOJqX6-XGzdC3xa7-10" edge="1">
            <mxGeometry width="100" height="100" relative="1" as="geometry">
              <Array as="points" />
            </mxGeometry>
          </mxCell>
        </UserObject>
        <UserObject label="" lucidchartObjectId="9zsQntzNffzD" id="gXJeCOJqX6-XGzdC3xa7-58">
          <mxCell style="html=1;jettySize=18;whiteSpace=wrap;fontSize=13;strokeColor=#c92d39;strokeOpacity=100;dashed=1;fixDash=1;dashPattern=8 8;strokeWidth=1.5;rounded=0;startArrow=none;endArrow=block;endFill=1;exitX=0.5;exitY=-0.012;exitPerimeter=0;entryX=0.5;entryY=1.012;entryPerimeter=0;" parent="1" source="gXJeCOJqX6-XGzdC3xa7-17" target="gXJeCOJqX6-XGzdC3xa7-12" edge="1">
            <mxGeometry width="100" height="100" relative="1" as="geometry">
              <Array as="points" />
            </mxGeometry>
          </mxCell>
        </UserObject>
        <UserObject label="" lucidchartObjectId="iAsQJLIXjscW" id="gXJeCOJqX6-XGzdC3xa7-59">
          <mxCell style="html=1;jettySize=18;whiteSpace=wrap;fontSize=13;strokeColor=#c92d39;strokeOpacity=100;dashed=1;fixDash=1;dashPattern=8 8;strokeWidth=1.5;rounded=0;startArrow=none;endArrow=block;endFill=1;exitX=0.5;exitY=-0.012;exitPerimeter=0;entryX=0.5;entryY=1.012;entryPerimeter=0;" parent="1" source="gXJeCOJqX6-XGzdC3xa7-30" target="gXJeCOJqX6-XGzdC3xa7-17" edge="1">
            <mxGeometry width="100" height="100" relative="1" as="geometry">
              <Array as="points" />
            </mxGeometry>
          </mxCell>
        </UserObject>
        <UserObject label="" lucidchartObjectId="vAsQYuWJjCrI" id="gXJeCOJqX6-XGzdC3xa7-60">
          <mxCell style="html=1;jettySize=18;whiteSpace=wrap;fontSize=13;strokeColor=#c92d39;strokeOpacity=100;dashed=1;fixDash=1;dashPattern=8 8;strokeWidth=1.5;rounded=0;startArrow=none;endArrow=block;endFill=1;exitX=0.5;exitY=-0.012;exitPerimeter=0;entryX=0.5;entryY=1.012;entryPerimeter=0;" parent="1" source="gXJeCOJqX6-XGzdC3xa7-30" target="gXJeCOJqX6-XGzdC3xa7-26" edge="1">
            <mxGeometry width="100" height="100" relative="1" as="geometry">
              <Array as="points" />
            </mxGeometry>
          </mxCell>
        </UserObject>
        <UserObject label="" lucidchartObjectId="zAsQSiR~C0TJ" id="gXJeCOJqX6-XGzdC3xa7-61">
          <mxCell style="html=1;jettySize=18;whiteSpace=wrap;fontSize=13;strokeColor=#c92d39;strokeOpacity=100;dashed=1;fixDash=1;dashPattern=8 8;strokeWidth=1.5;rounded=0;startArrow=none;endArrow=block;endFill=1;exitX=0.5;exitY=-0.012;exitPerimeter=0;entryX=0.5;entryY=1.012;entryPerimeter=0;" parent="1" source="gXJeCOJqX6-XGzdC3xa7-30" target="gXJeCOJqX6-XGzdC3xa7-27" edge="1">
            <mxGeometry width="100" height="100" relative="1" as="geometry">
              <Array as="points" />
            </mxGeometry>
          </mxCell>
        </UserObject>
        <UserObject label="" lucidchartObjectId="FAsQO.c.rPO8" id="gXJeCOJqX6-XGzdC3xa7-62">
          <mxCell style="html=1;jettySize=18;whiteSpace=wrap;fontSize=13;strokeColor=#c92d39;strokeOpacity=100;dashed=1;fixDash=1;dashPattern=8 8;strokeWidth=1.5;rounded=0;startArrow=none;endArrow=block;endFill=1;exitX=0.5;exitY=-0.012;exitPerimeter=0;entryX=0.453;entryY=1.012;entryPerimeter=0;" parent="1" source="gXJeCOJqX6-XGzdC3xa7-30" target="gXJeCOJqX6-XGzdC3xa7-28" edge="1">
            <mxGeometry width="100" height="100" relative="1" as="geometry">
              <Array as="points" />
            </mxGeometry>
          </mxCell>
        </UserObject>
        <UserObject label="&lt;div style=&quot;display: flex; justify-content: center; text-align: center; align-items: baseline; font-size: 0; line-height: 1.25;margin-top: -2px;&quot;&gt;&lt;span&gt;&lt;span style=&quot;font-size:13.3px;color:#000000;&quot;&gt;Published Feature&#xa;&lt;/span&gt;&lt;span style=&quot;font-size:10px;color:#000000;&quot;&gt;(Soton Update Site)&lt;/span&gt;&lt;span style=&quot;font-size:13.3px;color:#000000;&quot;&gt;&#xa;(x.x.x)&lt;/span&gt;&lt;/span&gt;&lt;/div&gt;" lucidchartObjectId="9rHQHu7.MHsP" id="gXJeCOJqX6-XGzdC3xa7-63">
          <mxCell style="html=1;overflow=block;blockSpacing=1;whiteSpace=wrap;fontSize=13;spacing=3.8;strokeOpacity=100;fillOpacity=100;rounded=1;absoluteArcSize=1;arcSize=7.5;fillColor=#83bbe5;strokeWidth=1.5;" parent="1" vertex="1">
            <mxGeometry x="15" y="90" width="135" height="60" as="geometry" />
          </mxCell>
        </UserObject>
        <UserObject label="Unpublished Feature (x.x.x)" lucidchartObjectId="JsHQjaNaZICL" id="gXJeCOJqX6-XGzdC3xa7-64">
          <mxCell style="html=1;overflow=block;blockSpacing=1;whiteSpace=wrap;fontSize=13.3;fontColor=default;spacing=3.8;strokeOpacity=100;fillOpacity=100;rounded=1;absoluteArcSize=1;arcSize=7.5;fillColor=#ffbbb1;dashed=1;fixDash=1;dashPattern=1 4;strokeWidth=1.5;" parent="1" vertex="1">
            <mxGeometry x="15" y="165" width="135" height="60" as="geometry" />
          </mxCell>
        </UserObject>
        <UserObject label="External Feature (x.x.x)" lucidchartObjectId="7sHQVAeInkfm" id="gXJeCOJqX6-XGzdC3xa7-65">
          <mxCell style="html=1;overflow=block;blockSpacing=1;whiteSpace=wrap;fontSize=13.3;fontColor=default;spacing=3.8;strokeOpacity=100;fillOpacity=100;rounded=1;absoluteArcSize=1;arcSize=7.5;fillColor=#e5e5e5;dashed=1;fixDash=1;strokeWidth=1.5;" parent="1" vertex="1">
            <mxGeometry x="15" y="240" width="135" height="60" as="geometry" />
          </mxCell>
        </UserObject>
        <UserObject label="Theory Feature (4.0.0RC1)" lucidchartObjectId="vtHQ583vS~iA" id="gXJeCOJqX6-XGzdC3xa7-66">
          <mxCell style="html=1;overflow=block;blockSpacing=1;whiteSpace=wrap;fontSize=13.3;fontColor=default;spacing=3.8;strokeOpacity=100;fillOpacity=100;rounded=1;absoluteArcSize=1;arcSize=7.5;fillColor=#b2d6ef;strokeWidth=1.5;" parent="1" vertex="1">
            <mxGeometry x="345" y="14" width="105" height="60" as="geometry" />
          </mxCell>
        </UserObject>
        <UserObject label="" lucidchartObjectId="EvHQTEcF46qO" id="gXJeCOJqX6-XGzdC3xa7-67">
          <mxCell style="html=1;jettySize=18;whiteSpace=wrap;fontSize=13;strokeColor=#c92d39;strokeOpacity=100;strokeWidth=1.5;rounded=0;startArrow=none;endArrow=block;endFill=1;exitX=0.5;exitY=-0.012;exitPerimeter=0;entryX=0.5;entryY=1.012;entryPerimeter=0;" parent="1" source="gXJeCOJqX6-XGzdC3xa7-23" target="gXJeCOJqX6-XGzdC3xa7-5" edge="1">
            <mxGeometry width="100" height="100" relative="1" as="geometry">
              <Array as="points" />
            </mxGeometry>
          </mxCell>
        </UserObject>
        <UserObject label="EventB_ProB_Support (0.1.0)" lucidchartObjectId="5vHQfU0mA4IP" id="gXJeCOJqX6-XGzdC3xa7-68">
          <mxCell style="html=1;overflow=block;blockSpacing=1;whiteSpace=wrap;fontSize=13.3;fontColor=default;spacing=3.8;strokeOpacity=100;fillOpacity=100;rounded=1;absoluteArcSize=1;arcSize=7.5;fillColor=#b3d6ef;strokeWidth=1.5;" parent="1" vertex="1">
            <mxGeometry x="1050" y="285" width="128" height="60" as="geometry" />
          </mxCell>
        </UserObject>
        <UserObject label="" lucidchartObjectId="uwHQHMrArZHT" id="gXJeCOJqX6-XGzdC3xa7-69">
          <mxCell style="html=1;jettySize=18;whiteSpace=wrap;fontSize=13;strokeColor=#c92d39;strokeOpacity=100;strokeWidth=1.5;rounded=0;startArrow=none;endArrow=block;endFill=1;exitX=0.5;exitY=-0.012;exitPerimeter=0;entryX=0.5;entryY=1.012;entryPerimeter=0;" parent="1" source="gXJeCOJqX6-XGzdC3xa7-68" target="gXJeCOJqX6-XGzdC3xa7-13" edge="1">
            <mxGeometry width="100" height="100" relative="1" as="geometry">
              <Array as="points" />
            </mxGeometry>
          </mxCell>
        </UserObject>
        <UserObject label="" lucidchartObjectId="QwHQ9Wkh4Q8O" id="gXJeCOJqX6-XGzdC3xa7-70">
          <mxCell style="html=1;jettySize=18;whiteSpace=wrap;fontSize=13;strokeColor=#c92d39;strokeOpacity=100;strokeWidth=1.5;rounded=0;startArrow=none;endArrow=block;endFill=1;exitX=0.5;exitY=-0.012;exitPerimeter=0;entryX=0.5;entryY=1.012;entryPerimeter=0;" parent="1" source="gXJeCOJqX6-XGzdC3xa7-15" target="gXJeCOJqX6-XGzdC3xa7-23" edge="1">
            <mxGeometry width="100" height="100" relative="1" as="geometry">
              <Array as="points" />
            </mxGeometry>
          </mxCell>
        </UserObject>
        <UserObject label="ERS/Activity Diagrams (xxx)" lucidchartObjectId="tyHQ-ggma8PZ" id="gXJeCOJqX6-XGzdC3xa7-71">
          <mxCell style="html=1;overflow=block;blockSpacing=1;whiteSpace=wrap;fontSize=13.3;fontColor=default;spacing=3.8;strokeOpacity=100;fillOpacity=100;rounded=1;absoluteArcSize=1;arcSize=7.5;fillColor=#ffbbb1;dashed=1;fixDash=1;dashPattern=1 2;strokeWidth=1.5;" parent="1" vertex="1">
            <mxGeometry x="941" y="885" width="150" height="60" as="geometry" />
          </mxCell>
        </UserObject>
        <UserObject label="Multi-simulation (xxx)" lucidchartObjectId="UyHQRVPoi07y" id="gXJeCOJqX6-XGzdC3xa7-72">
          <mxCell style="html=1;overflow=block;blockSpacing=1;whiteSpace=wrap;fontSize=13.3;fontColor=default;spacing=3.8;strokeOpacity=100;fillOpacity=100;rounded=1;absoluteArcSize=1;arcSize=7.5;fillColor=#ffbbb1;dashed=1;fixDash=1;dashPattern=1 2;strokeWidth=1.5;" parent="1" vertex="1">
            <mxGeometry x="1155" y="795" width="105" height="60" as="geometry" />
          </mxCell>
        </UserObject>
        <UserObject label="" lucidchartObjectId="cAHQn~2~f1Iz" id="gXJeCOJqX6-XGzdC3xa7-73">
          <mxCell style="html=1;jettySize=18;whiteSpace=wrap;fontSize=13;strokeColor=#c92d39;strokeOpacity=100;dashed=1;fixDash=1;dashPattern=10 5 1 5;strokeWidth=1.5;rounded=0;startArrow=none;endArrow=block;endFill=1;exitX=0.5;exitY=-0.012;exitPerimeter=0;entryX=0.5;entryY=1.012;entryPerimeter=0;" parent="1" source="gXJeCOJqX6-XGzdC3xa7-31" target="gXJeCOJqX6-XGzdC3xa7-68" edge="1">
            <mxGeometry width="100" height="100" relative="1" as="geometry">
              <Array as="points" />
            </mxGeometry>
          </mxCell>
        </UserObject>
        <UserObject label="" lucidchartObjectId="eoKQhZ1iy.wD" id="gXJeCOJqX6-XGzdC3xa7-74">
          <mxCell style="html=1;jettySize=18;whiteSpace=wrap;fontSize=13;strokeColor=#c92d39;strokeOpacity=100;strokeWidth=1.5;rounded=0;startArrow=none;endArrow=block;endFill=1;exitX=0.5;exitY=-0.012;exitPerimeter=0;entryX=0.5;entryY=1.012;entryPerimeter=0;" parent="1" source="gXJeCOJqX6-XGzdC3xa7-25" target="gXJeCOJqX6-XGzdC3xa7-68" edge="1">
            <mxGeometry width="100" height="100" relative="1" as="geometry">
              <Array as="points" />
            </mxGeometry>
          </mxCell>
        </UserObject>
        <UserObject label="" lucidchartObjectId="4pKQ_PGfUPHk" id="gXJeCOJqX6-XGzdC3xa7-75">
          <mxCell style="html=1;jettySize=18;whiteSpace=wrap;fontSize=13;strokeColor=#c92d39;strokeOpacity=100;strokeWidth=1.5;rounded=0;startArrow=none;endArrow=block;endFill=1;exitX=0.5;exitY=-0.012;exitPerimeter=0;entryX=0.5;entryY=1.012;entryPerimeter=0;" parent="1" source="gXJeCOJqX6-XGzdC3xa7-25" target="gXJeCOJqX6-XGzdC3xa7-3" edge="1">
            <mxGeometry width="100" height="100" relative="1" as="geometry">
              <Array as="points" />
            </mxGeometry>
          </mxCell>
        </UserObject>
        <UserObject label="" lucidchartObjectId="KuKQ~aeS2-rB" id="gXJeCOJqX6-XGzdC3xa7-76">
          <mxCell style="html=1;jettySize=18;whiteSpace=wrap;fontSize=13;strokeColor=#c92d39;strokeOpacity=100;strokeWidth=1.5;rounded=0;startArrow=none;endArrow=block;endFill=1;exitX=0.5;exitY=-0.012;exitPerimeter=0;entryX=0.5;entryY=1.012;entryPerimeter=0;" parent="1" source="gXJeCOJqX6-XGzdC3xa7-25" target="gXJeCOJqX6-XGzdC3xa7-28" edge="1">
            <mxGeometry width="100" height="100" relative="1" as="geometry">
              <Array as="points" />
            </mxGeometry>
          </mxCell>
        </UserObject>
        <UserObject label="Rodinp (3.x.x)" lucidchartObjectId="tDKQmoDKklCp" id="gXJeCOJqX6-XGzdC3xa7-77">
          <mxCell style="html=1;overflow=block;blockSpacing=1;whiteSpace=wrap;fontSize=13.3;fontColor=default;spacing=3.8;strokeOpacity=100;fillOpacity=100;rounded=1;absoluteArcSize=1;arcSize=7.5;fillColor=#e5e5e5;dashed=1;fixDash=1;strokeWidth=1.5;" parent="1" vertex="1">
            <mxGeometry x="548" y="14" width="120" height="60" as="geometry" />
          </mxCell>
        </UserObject>
        <UserObject label="" lucidchartObjectId="MEKQZTA3d61N" id="gXJeCOJqX6-XGzdC3xa7-78">
          <mxCell style="html=1;jettySize=18;whiteSpace=wrap;fontSize=13;strokeColor=#c92d39;strokeOpacity=100;strokeWidth=1.5;rounded=0;startArrow=none;endArrow=block;endFill=1;exitX=0.5;exitY=-0.012;exitPerimeter=0;entryX=0.5;entryY=1.012;entryPerimeter=0;" parent="1" source="gXJeCOJqX6-XGzdC3xa7-7" target="gXJeCOJqX6-XGzdC3xa7-77" edge="1">
            <mxGeometry width="100" height="100" relative="1" as="geometry">
              <Array as="points" />
            </mxGeometry>
          </mxCell>
        </UserObject>
        <UserObject label="" lucidchartObjectId="WEKQztgaXIyK" id="gXJeCOJqX6-XGzdC3xa7-79">
          <mxCell style="html=1;jettySize=18;whiteSpace=wrap;fontSize=13;strokeColor=#c92d39;strokeOpacity=100;strokeWidth=1.5;rounded=0;startArrow=none;endArrow=block;endFill=1;exitX=0.5;exitY=-0.012;exitPerimeter=0;entryX=0.5;entryY=1.012;entryPerimeter=0;" parent="1" source="gXJeCOJqX6-XGzdC3xa7-3" target="gXJeCOJqX6-XGzdC3xa7-77" edge="1">
            <mxGeometry width="100" height="100" relative="1" as="geometry">
              <Array as="points" />
            </mxGeometry>
          </mxCell>
        </UserObject>
        <UserObject label="" lucidchartObjectId="iFQ~bQ6bUsG6" id="gXJeCOJqX6-XGzdC3xa7-80">
          <mxCell style="html=1;jettySize=18;whiteSpace=wrap;fontSize=13;strokeColor=#c92d39;strokeOpacity=100;strokeWidth=1.5;rounded=0;startArrow=none;endArrow=block;endFill=1;exitX=0.5;exitY=-0.012;exitPerimeter=0;entryX=0.5;entryY=1.012;entryPerimeter=0;" parent="1" source="gXJeCOJqX6-XGzdC3xa7-9" target="gXJeCOJqX6-XGzdC3xa7-6" edge="1">
            <mxGeometry width="100" height="100" relative="1" as="geometry">
              <Array as="points" />
            </mxGeometry>
          </mxCell>
        </UserObject>
        <UserObject label="" lucidchartObjectId="HFQ~K~Usv4-y" id="gXJeCOJqX6-XGzdC3xa7-81">
          <mxCell style="html=1;jettySize=18;whiteSpace=wrap;fontSize=13;strokeColor=#c92d39;strokeOpacity=100;strokeWidth=1.5;rounded=0;startArrow=none;endArrow=block;endFill=1;exitX=0.5;exitY=-0.012;exitPerimeter=0;entryX=0.5;entryY=1.012;entryPerimeter=0;" parent="1" source="gXJeCOJqX6-XGzdC3xa7-23" target="gXJeCOJqX6-XGzdC3xa7-6" edge="1">
            <mxGeometry width="100" height="100" relative="1" as="geometry">
              <Array as="points" />
            </mxGeometry>
          </mxCell>
        </UserObject>
        <UserObject label="&lt;div style=&quot;display: flex; justify-content: center; text-align: center; align-items: baseline; font-size: 0; line-height: 1.25;margin-top: -2px;&quot;&gt;&lt;span&gt;&lt;span style=&quot;font-size:13.3px;color:#000000;&quot;&gt;Published Feature &lt;/span&gt;&lt;span style=&quot;font-size:10px;color:#000000;&quot;&gt;(Rodin Update Site)&lt;/span&gt;&lt;span style=&quot;font-size:13.3px;color:#000000;&quot;&gt;&#xa;(x.x.x)&lt;/span&gt;&lt;/span&gt;&lt;/div&gt;" lucidchartObjectId="rDXhSrO.p5X3" id="gXJeCOJqX6-XGzdC3xa7-82">
          <mxCell style="html=1;overflow=block;blockSpacing=1;whiteSpace=wrap;fontSize=13;spacing=3.8;strokeOpacity=100;fillOpacity=100;rounded=1;absoluteArcSize=1;arcSize=7.5;fillColor=#b2d6ef;strokeWidth=1.5;" parent="1" vertex="1">
            <mxGeometry x="15" y="8" width="135" height="72" as="geometry" />
          </mxCell>
        </UserObject>
        <UserObject label="" lucidchartObjectId="ujqmyDVpwUmV" id="gXJeCOJqX6-XGzdC3xa7-83">
          <mxCell style="html=1;jettySize=18;whiteSpace=wrap;fontSize=13;strokeColor=#c92d39;strokeOpacity=100;dashed=1;fixDash=1;dashPattern=10 5 1 5 1 5;strokeWidth=1.5;rounded=0;startArrow=none;endArrow=block;endFill=1;exitX=0.5;exitY=-0.012;exitPerimeter=0;entryX=0.5;entryY=1.012;entryPerimeter=0;" parent="1" source="gXJeCOJqX6-XGzdC3xa7-19" target="gXJeCOJqX6-XGzdC3xa7-8" edge="1">
            <mxGeometry width="100" height="100" relative="1" as="geometry">
              <Array as="points" />
            </mxGeometry>
          </mxCell>
        </UserObject>
        <UserObject label="" lucidchartObjectId="pFqmVTTiK0Tc" id="gXJeCOJqX6-XGzdC3xa7-84">
          <mxCell style="html=1;jettySize=18;whiteSpace=wrap;fontSize=13;strokeColor=#c92d39;strokeOpacity=100;strokeWidth=1.5;rounded=0;startArrow=none;endArrow=block;endFill=1;exitX=-0.004;exitY=0.5;exitPerimeter=0;entryX=1.003;entryY=0.5;entryPerimeter=0;" parent="1" source="gXJeCOJqX6-XGzdC3xa7-19" target="gXJeCOJqX6-XGzdC3xa7-12" edge="1">
            <mxGeometry width="100" height="100" relative="1" as="geometry">
              <Array as="points" />
            </mxGeometry>
          </mxCell>
        </UserObject>
        <UserObject label="" lucidchartObjectId="cGqmpr5RgxHK" id="gXJeCOJqX6-XGzdC3xa7-85">
          <mxCell style="html=1;jettySize=18;whiteSpace=wrap;fontSize=13;strokeColor=#c92d39;strokeOpacity=100;strokeWidth=1.5;rounded=0;startArrow=none;endArrow=block;endFill=1;exitX=0.5;exitY=-0.012;exitPerimeter=0;entryX=0.5;entryY=1.012;entryPerimeter=0;" parent="1" source="gXJeCOJqX6-XGzdC3xa7-31" target="gXJeCOJqX6-XGzdC3xa7-19" edge="1">
            <mxGeometry width="100" height="100" relative="1" as="geometry">
              <Array as="points" />
            </mxGeometry>
          </mxCell>
        </UserObject>
        <UserObject label="SCXML_EMF" lucidchartObjectId="pcSKRgAndXlr" id="gXJeCOJqX6-XGzdC3xa7-86">
          <mxCell style="html=1;overflow=block;blockSpacing=1;whiteSpace=wrap;fontSize=13.3;fontColor=default;fontStyle=1;spacing=3.8;strokeOpacity=100;fillOpacity=100;rounded=1;absoluteArcSize=1;arcSize=7.5;fillColor=#83bbe5;strokeWidth=1.5;" parent="1" vertex="1">
            <mxGeometry x="1215" y="457" width="135" height="60" as="geometry" />
          </mxCell>
        </UserObject>
        <UserObject label="SCXML_EVENTB" lucidchartObjectId="jrSKFNfPN_bQ" id="gXJeCOJqX6-XGzdC3xa7-87">
          <mxCell style="html=1;overflow=block;blockSpacing=1;whiteSpace=wrap;fontSize=13.3;fontColor=default;fontStyle=1;spacing=3.8;strokeOpacity=100;fillOpacity=100;rounded=1;absoluteArcSize=1;arcSize=7.5;fillColor=#83bbe5;strokeWidth=1.5;" parent="1" vertex="1">
            <mxGeometry x="1215" y="645" width="135" height="60" as="geometry" />
          </mxCell>
        </UserObject>
        <UserObject label="" lucidchartObjectId="osSKmjbgdhkG" id="gXJeCOJqX6-XGzdC3xa7-88">
          <mxCell style="html=1;jettySize=18;whiteSpace=wrap;fontSize=13;strokeColor=#c92d39;strokeOpacity=100;strokeWidth=1.5;rounded=0;startArrow=none;endArrow=block;endFill=1;exitX=0.5;exitY=-0.012;exitPerimeter=0;entryX=0.5;entryY=1.012;entryPerimeter=0;" parent="1" source="gXJeCOJqX6-XGzdC3xa7-86" target="gXJeCOJqX6-XGzdC3xa7-3" edge="1">
            <mxGeometry width="100" height="100" relative="1" as="geometry">
              <Array as="points" />
            </mxGeometry>
          </mxCell>
        </UserObject>
        <UserObject label="" lucidchartObjectId="rtSKqVdxPYfh" id="gXJeCOJqX6-XGzdC3xa7-89">
          <mxCell style="html=1;jettySize=18;whiteSpace=wrap;fontSize=13;strokeColor=#c92d39;strokeOpacity=100;strokeWidth=1.5;rounded=0;startArrow=none;endArrow=block;endFill=1;exitX=0.5;exitY=-0.012;exitPerimeter=0;entryX=0.5;entryY=1.012;entryPerimeter=0;" parent="1" source="gXJeCOJqX6-XGzdC3xa7-87" target="gXJeCOJqX6-XGzdC3xa7-86" edge="1">
            <mxGeometry width="100" height="100" relative="1" as="geometry">
              <Array as="points" />
            </mxGeometry>
          </mxCell>
        </UserObject>
      </root>
    </mxGraphModel>
  </diagram>
</mxfile>
